<svg width="197" height="62" viewBox="0 0 197 62" fill="none" xmlns="http://www.w3.org/2000/svg">
<path fill-rule="evenodd" clip-rule="evenodd" d="M35.2885 1.80176C32.8862 -0.600586 28.9918 -0.600586 26.5895 1.80176L1.8016 26.5896C-0.600314 28.9915 -0.600752 32.8863 1.8016 35.2887L26.5895 60.0765C28.9914 62.4785 32.8866 62.4785 35.2885 60.0765L60.0764 35.2887C62.4787 32.8863 62.4783 28.9915 60.0764 26.5896L35.2885 1.80176ZM27.5895 2.8018C29.4366 0.954763 32.4418 0.955159 34.2885 2.8018L59.0763 27.5897C60.923 29.4363 60.923 32.442 59.0763 34.2886L34.2885 59.0765C32.4418 60.9231 29.4361 60.9231 27.5895 59.0765L2.80165 34.2886C0.954607 32.4416 0.955003 29.4363 2.80165 27.5897L27.5895 2.8018Z" fill="#264C2D"/>
<path fill-rule="evenodd" clip-rule="evenodd" d="M30.8552 11.8043L30.5173 11.6099L24.9447 14.9065L24.9441 14.9068L24.5756 15.1269V21.2551L19.5502 24.2071L19.5496 24.2075L19.1789 24.4272V30.6385L13.773 33.81V40.693L19.8417 44.2598L20.2249 44.0441L25.3055 41.1651L30.3647 44.1386L30.7418 44.3613L31.124 44.1462L36.3248 41.1996L41.1705 44.0476L41.5476 44.2703L41.9298 44.0551L47.3368 40.9917L47.3378 40.9912L47.6802 40.8V33.7972L47.2974 33.5843L42.0542 30.6457V24.4013L41.6752 24.1874L36.6894 21.3482V15.1016L36.3126 14.8851L30.8565 11.805L30.8552 11.8043ZM33.8154 23.7388L35.9851 22.4995L40.0283 24.8019L36.0161 27.1316L32.0264 24.8054L33.8154 23.7388ZM28.6987 24.4476L29.3143 24.8123L25.2528 27.1347L21.1982 24.8059L25.1736 22.4705L28.6987 24.4476ZM26.5864 15.5018L30.5299 13.1663L34.6531 15.4984L30.6085 17.8295L26.5864 15.5018ZM31.2832 23.6301V19.0052L35.3452 16.6649V21.2563L33.2122 22.5282L31.2832 23.6301ZM29.9367 19.0039L25.9244 16.6828V21.2311L29.5251 23.3645L29.9367 23.5953V19.0039ZM30.0264 25.9658L25.9275 28.3104V32.9393L30.0264 30.6148V25.9658ZM36.8744 39.9618L40.8831 42.3178V37.7046L36.8744 35.4042V39.9618ZM35.481 35.476L31.4209 37.7963V42.4302L35.481 40.1298V35.476ZM36.6902 32.9318V28.3078L40.7112 25.9729V30.6168L36.6902 32.9318ZM35.3454 28.3066L31.3717 25.9906V30.5381L35.3454 32.9101V28.3066ZM15.7932 34.19L19.7723 31.8551L23.9331 34.1866L19.8516 36.519L15.7932 34.19ZM20.5268 42.3245V37.6946L24.6315 35.3489V39.9988L20.5268 42.3245ZM19.1792 37.6951L15.1248 35.369V39.9201L19.1792 42.303V37.6951ZM37.4905 34.2019L41.4741 31.8645L45.6391 34.1984L41.5529 36.5331L37.4905 34.2019ZM42.2267 42.3392V37.7053L46.3354 35.3572V40.0112L42.2267 42.3392ZM26.6847 34.2929L30.6683 31.9556L34.8333 34.2894L30.7471 36.6242L26.6847 34.2929ZM30.0773 37.7956L26.0188 35.4667V40.0236L30.0773 42.4088V37.7956ZM24.5777 28.3092L20.5283 25.9831V30.5333L24.5799 32.9174L24.5777 28.3092Z" fill="#264C2D"/>
<path d="M95.0371 44.4084L91.7267 35.9012H80.8329L77.5609 44.4084H74.058L84.7977 16.8082H87.9158L98.6171 44.4084H95.0371ZM90.6873 32.8217L87.6078 24.507C87.5308 24.3017 87.4025 23.9296 87.2229 23.3907C87.0432 22.8518 86.8636 22.3 86.684 21.7355C86.53 21.1452 86.4017 20.6961 86.299 20.3882C86.1194 21.1837 85.9141 21.9664 85.6831 22.7363C85.4521 23.4805 85.2597 24.0708 85.1057 24.507L81.9877 32.8217H90.6873Z" fill="#264C2D"/>
<path d="M103.532 44.4084V16.9237H106.996V41.3289H119.006V44.4084H103.532Z" fill="#264C2D"/>
<path d="M140.232 44.4084H124.873V16.9237H140.232V19.9647H128.338V28.5489H139.539V31.5514H128.338V41.3674H140.232V44.4084Z" fill="#264C2D"/>
<path d="M155.001 16.9237C158.414 16.9237 160.929 17.5781 162.546 18.8869C164.188 20.17 165.009 22.1204 165.009 24.738C165.009 26.2008 164.74 27.4197 164.201 28.3949C163.662 29.3701 162.969 30.1528 162.122 30.743C161.301 31.3076 160.429 31.7567 159.505 32.0903L167.05 44.4084H163.008L156.348 33.0527H150.882V44.4084H147.418V16.9237H155.001ZM154.809 19.9263H150.882V30.1271H155.001C157.234 30.1271 158.863 29.6909 159.89 28.8183C160.916 27.9201 161.429 26.6114 161.429 24.892C161.429 23.0956 160.891 21.8253 159.813 21.0811C158.735 20.3112 157.067 19.9263 154.809 19.9263Z" fill="#264C2D"/>
<path d="M196.5 30.6276C196.5 33.4761 196.013 35.9654 195.037 38.0954C194.088 40.1997 192.676 41.8421 190.803 43.0226C188.93 44.2031 186.607 44.7933 183.836 44.7933C180.987 44.7933 178.613 44.2031 176.714 43.0226C174.841 41.8421 173.442 40.1869 172.518 38.0569C171.595 35.9269 171.133 33.4376 171.133 30.5891C171.133 27.7662 171.595 25.3026 172.518 23.1982C173.442 21.0939 174.841 19.4515 176.714 18.271C178.613 17.0905 181 16.5003 183.874 16.5003C186.62 16.5003 188.93 17.0905 190.803 18.271C192.676 19.4258 194.088 21.0682 195.037 23.1982C196.013 25.3026 196.5 27.779 196.5 30.6276ZM174.79 30.6276C174.79 34.092 175.521 36.8251 176.984 38.8268C178.446 40.8028 180.73 41.7908 183.836 41.7908C186.966 41.7908 189.25 40.8028 190.688 38.8268C192.125 36.8251 192.843 34.092 192.843 30.6276C192.843 27.1631 192.125 24.4557 190.688 22.5053C189.25 20.5293 186.979 19.5413 183.874 19.5413C180.769 19.5413 178.472 20.5293 176.984 22.5053C175.521 24.4557 174.79 27.1631 174.79 30.6276Z" fill="#264C2D"/>
<path fill-rule="evenodd" clip-rule="evenodd" d="M94.6946 44.9088L91.3841 36.4016H81.1763L77.9043 44.9088H73.326L84.4552 16.3078H88.2582L99.3475 44.9088H94.6946ZM80.8329 35.9012H91.7267L95.0371 44.4084H98.6171L87.9158 16.8082H84.7977L74.058 44.4084H77.5609L80.8329 35.9012ZM86.0651 21.3591C85.9467 21.8226 85.8195 22.2817 85.6831 22.7363C85.4521 23.4805 85.2597 24.0708 85.1057 24.507L81.9877 32.8217H90.6873L87.6078 24.507C87.5308 24.3017 87.4025 23.9296 87.2229 23.3907C87.0432 22.8518 86.8636 22.3 86.684 21.7355C86.6489 21.6012 86.6149 21.4742 86.5826 21.3545C86.4726 20.9482 86.3783 20.6261 86.299 20.3882C86.2254 20.714 86.1473 21.0376 86.0651 21.3591ZM86.3345 22.2864C86.2787 22.4851 86.2213 22.683 86.1622 22.8801L86.1608 22.8846C85.929 23.6314 85.7344 24.2286 85.5773 24.6736L85.5741 24.6828L82.7095 32.3213H89.9681L87.139 24.6827C87.1389 24.6825 87.1391 24.683 87.139 24.6827C87.0583 24.4675 86.9271 24.0867 86.7479 23.549C86.6101 23.1356 86.4723 22.7147 86.3345 22.2864ZM103.031 44.9088V16.4233H107.496V40.8284H119.506V44.9088H103.031ZM106.996 41.3289V16.9237H103.532V44.4084H119.006V41.3289H106.996ZM140.732 44.9088H124.373V16.4233H140.732V20.4652H128.838V28.0485H140.04V32.0518H128.838V40.8669H140.732V44.9088ZM128.338 41.3674V31.5514H139.539V28.5489H128.338V19.9647H140.232V16.9237H124.873V44.4084H140.232V41.3674H128.338ZM163.008 44.4084L156.348 33.0527H150.882V44.4084H147.418V16.9237H155.001C158.414 16.9237 160.929 17.5781 162.546 18.8869C164.188 20.17 165.009 22.1204 165.009 24.738C165.009 26.2008 164.74 27.4197 164.201 28.3949C163.662 29.3701 162.969 30.1528 162.122 30.743C161.443 31.21 160.729 31.598 159.979 31.907C159.822 31.9715 159.664 32.0327 159.505 32.0903L167.05 44.4084H163.008ZM160.244 32.3389L167.943 44.9088H162.721L156.061 33.5531H151.382V44.9088H146.917V16.4233H155.001C158.458 16.4233 161.11 17.0827 162.857 18.4953C164.649 19.8971 165.51 22.0114 165.51 24.738C165.51 26.2598 165.229 27.5681 164.639 28.637C164.066 29.6738 163.323 30.5161 162.408 31.1536L162.406 31.1554C161.72 31.6268 160.999 32.0215 160.244 32.3389ZM159.522 21.4883C158.57 20.8085 157.028 20.4267 154.808 20.4267H151.382V29.6267H155.001C157.185 29.6267 158.669 29.197 159.563 28.4394C160.452 27.66 160.929 26.5059 160.929 24.892C160.929 23.1935 160.424 22.1113 159.528 21.4929L159.522 21.4883ZM159.89 28.8183C158.863 29.6909 157.234 30.1271 155.001 30.1271H150.882V19.9263H154.809C157.067 19.9263 158.735 20.3112 159.813 21.0811C160.891 21.8253 161.429 23.0956 161.429 24.892C161.429 26.6114 160.916 27.9201 159.89 28.8183ZM176.45 43.4476L176.447 43.446C174.484 42.2091 173.021 40.4737 172.059 38.256C171.103 36.0506 170.632 33.491 170.632 30.5891C170.632 27.7123 171.103 25.1775 172.06 22.9971C173.022 20.8049 174.486 19.0835 176.447 17.8476L176.45 17.846C178.448 16.604 180.933 15.9999 183.874 15.9999C186.691 15.9999 189.097 16.6056 191.068 17.8464C193.03 19.0566 194.505 20.7775 195.493 22.9912C196.504 25.174 197 27.7241 197 30.6276C197 33.5326 196.503 36.0954 195.492 38.3032C194.504 40.4921 193.029 42.2112 191.07 43.446C189.098 44.6881 186.678 45.2937 183.835 45.2937C180.919 45.2937 178.447 44.6892 176.45 43.4476ZM195.037 38.0954L195.493 38.3012C195.493 38.3019 195.493 38.3025 195.492 38.3032C195.492 38.3034 195.492 38.3031 195.492 38.3032L195.037 38.0954ZM176.714 43.0226C174.841 41.8421 173.442 40.1869 172.518 38.0569C171.595 35.9269 171.133 33.4376 171.133 30.5891C171.133 27.7662 171.595 25.3026 172.518 23.1982C173.442 21.0939 174.841 19.4515 176.714 18.271C178.613 17.0905 181 16.5003 183.874 16.5003C186.62 16.5003 188.93 17.0905 190.803 18.271C192.676 19.4258 194.088 21.0682 195.037 23.1982C196.013 25.3026 196.5 27.779 196.5 30.6276C196.5 33.4761 196.013 35.9654 195.037 38.0954C194.088 40.1997 192.676 41.8421 190.803 43.0226C188.93 44.2031 186.607 44.7933 183.836 44.7933C180.987 44.7933 178.613 44.2031 176.714 43.0226ZM190.284 22.8022L190.283 22.7997C188.965 20.9877 186.867 20.0417 183.874 20.0417C180.881 20.0417 178.753 20.9876 177.383 22.8064C176.008 24.6404 175.29 27.2277 175.29 30.6276C175.29 34.0264 176.008 36.6428 177.387 38.5306C178.731 40.3451 180.843 41.2904 183.835 41.2904C186.855 41.2904 188.964 40.3438 190.282 38.5338C191.637 36.6455 192.343 34.0278 192.343 30.6276C192.343 27.2256 191.636 24.6366 190.284 22.8022ZM176.984 38.8268C175.521 36.8251 174.79 34.092 174.79 30.6276C174.79 27.1631 175.521 24.4557 176.984 22.5053C178.472 20.5293 180.769 19.5413 183.874 19.5413C186.979 19.5413 189.25 20.5293 190.688 22.5053C192.125 24.4557 192.843 27.1631 192.843 30.6276C192.843 34.092 192.125 36.8251 190.688 38.8268C189.25 40.8028 186.966 41.7908 183.836 41.7908C180.73 41.7908 178.446 40.8028 176.984 38.8268Z" fill="#264C2D"/>
</svg>
