<svg width="37" height="37" viewBox="0 0 37 37" fill="none" xmlns="http://www.w3.org/2000/svg">
<path fill-rule="evenodd" clip-rule="evenodd" d="M21.1008 1.07736C19.6643 -0.359121 17.3357 -0.359121 15.8992 1.07736L1.07727 15.8993C-0.358959 17.3355 -0.35922 19.6644 1.07727 21.1009L15.8992 35.9228C17.3354 37.3591 19.6646 37.3591 21.1008 35.9228L35.9227 21.1009C37.3592 19.6644 37.359 17.3355 35.9227 15.8993L21.1008 1.07736ZM16.4972 1.67534C17.6016 0.570902 19.3986 0.571139 20.5028 1.67534L35.3248 16.4973C36.4289 17.6015 36.4289 19.3987 35.3248 20.5029L20.5028 35.3248C19.3986 36.429 17.6014 36.429 16.4972 35.3248L1.67525 20.5029C0.570808 19.3985 0.571045 17.6015 1.67525 16.4973L16.4972 1.67534Z" fill="#264C2D"/>
<path fill-rule="evenodd" clip-rule="evenodd" d="M18.4499 7.05835L18.2478 6.94208L14.9157 8.91328L14.9154 8.9135L14.695 9.04507V12.7095L11.6901 14.4746L11.6897 14.4748L11.4681 14.6062V18.3203L8.2356 20.2167V24.3324L11.8644 26.4652L12.0935 26.3362L15.1315 24.6147L18.1566 26.3927L18.3821 26.5258L18.6107 26.3972L21.7205 24.6353L24.6179 26.3382L24.8434 26.4714L25.072 26.3428L28.3051 24.511L28.3057 24.5107L28.5104 24.3963V20.209L28.2816 20.0817L25.1464 18.3246V14.5907L24.9197 14.4629L21.9385 12.7651V9.02996L21.7132 8.90053L18.4507 7.05879L18.4499 7.05835ZM20.22 14.1946L21.5173 13.4536L23.935 14.8303L21.5359 16.2233L19.1503 14.8323L20.22 14.1946ZM17.1604 14.6184L17.5286 14.8365L15.1 16.2252L12.6755 14.8326L15.0526 13.4362L17.1604 14.6184ZM15.8974 9.26927L18.2554 7.87274L20.7209 9.26724L18.3024 10.6611L15.8974 9.26927ZM18.7058 14.1296V11.3641L21.1347 9.96477V12.7102L19.8593 13.4707L18.7058 14.1296ZM17.9007 11.3634L15.5015 9.97546V12.6951L17.6546 13.9708L17.9007 14.1088V11.3634ZM17.9543 15.5263L15.5034 16.9282V19.6961L17.9543 18.3061V15.5263ZM22.0491 23.8952L24.4461 25.3039V22.5454L22.0491 21.1699V23.8952ZM21.2159 21.2129L18.7882 22.6003V25.3712L21.2159 23.9956V21.2129ZM21.9389 19.6915V16.9266L24.3433 15.5304V18.3073L21.9389 19.6915ZM21.1348 16.9259L18.7588 15.541V18.2602L21.1348 19.6786V16.9259ZM9.44357 20.4439L11.8229 19.0477L14.3108 20.4419L11.8703 21.8365L9.44357 20.4439ZM12.274 25.3079V22.5395L14.7285 21.1369V23.9172L12.274 25.3079ZM11.4682 22.5398L9.04387 21.1489V23.8702L11.4682 25.2951V22.5398ZM22.4175 20.451L24.7995 19.0534L27.2899 20.4489L24.8466 21.845L22.4175 20.451ZM25.2495 25.3167V22.5458L27.7063 21.1418V23.9247L25.2495 25.3167ZM15.9562 20.5054L18.3382 19.1078L20.8286 20.5034L18.3853 21.8994L15.9562 20.5054ZM17.9848 22.5999L15.558 21.2073V23.9321L17.9848 25.3583V22.5999ZM14.6962 16.9274L12.275 15.5366V18.2574L14.6976 19.6829L14.6962 16.9274Z" fill="#264C2D"/>
</svg>
